<svg width="23" height="16" viewBox="0 0 23 16" fill="none" xmlns="http://www.w3.org/2000/svg">
<path d="M13.5417 5.81143V4.13695C14.1146 3.90712 14.7005 3.73475 15.2995 3.61983C15.8984 3.50492 16.5278 3.44746 17.1875 3.44746C17.6389 3.44746 18.0816 3.48029 18.5156 3.54596C18.9497 3.61163 19.375 3.69371 19.7917 3.79221V5.36819C19.375 5.22044 18.954 5.10963 18.5286 5.03575C18.1033 4.96188 17.6562 4.92494 17.1875 4.92494C16.5278 4.92494 15.8941 5.00292 15.2865 5.15888C14.6788 5.31483 14.0972 5.53235 13.5417 5.81143ZM13.5417 11.2289V9.55439C14.1146 9.32456 14.7005 9.15219 15.2995 9.03727C15.8984 8.92236 16.5278 8.8649 17.1875 8.8649C17.6389 8.8649 18.0816 8.89773 18.5156 8.9634C18.9497 9.02906 19.375 9.11115 19.7917 9.20964V10.7856C19.375 10.6379 18.954 10.5271 18.5286 10.4532C18.1033 10.3793 17.6562 10.3424 17.1875 10.3424C16.5278 10.3424 15.8941 10.4163 15.2865 10.564C14.6788 10.7118 14.0972 10.9334 13.5417 11.2289ZM13.5417 8.52015V6.84567C14.1146 6.61584 14.7005 6.44347 15.2995 6.32855C15.8984 6.21364 16.5278 6.15618 17.1875 6.15618C17.6389 6.15618 18.0816 6.18901 18.5156 6.25468C18.9497 6.32034 19.375 6.40243 19.7917 6.50093V8.07691C19.375 7.92916 18.954 7.81835 18.5286 7.74447C18.1033 7.6706 17.6562 7.63366 17.1875 7.63366C16.5278 7.63366 15.8941 7.71164 15.2865 7.8676C14.6788 8.02355 14.0972 8.24107 13.5417 8.52015ZM5.72917 11.8199C6.54514 11.8199 7.33941 11.9061 8.11198 12.0784C8.88455 12.2508 9.65278 12.5094 10.4167 12.8541V3.15196C9.70486 2.75797 8.94965 2.46247 8.15104 2.26547C7.35243 2.06848 6.54514 1.96998 5.72917 1.96998C5.10417 1.96998 4.48351 2.02744 3.86719 2.14235C3.25087 2.25727 2.65625 2.42964 2.08333 2.65947V12.4109C2.69097 12.2139 3.29427 12.0661 3.89323 11.9676C4.49219 11.8691 5.10417 11.8199 5.72917 11.8199ZM12.5 12.8541C13.2639 12.5094 14.0321 12.2508 14.8047 12.0784C15.5773 11.9061 16.3715 11.8199 17.1875 11.8199C17.8125 11.8199 18.4245 11.8691 19.0234 11.9676C19.6224 12.0661 20.2257 12.2139 20.8333 12.4109V2.65947C20.2604 2.42964 19.6658 2.25727 19.0495 2.14235C18.4332 2.02744 17.8125 1.96998 17.1875 1.96998C16.3715 1.96998 15.5642 2.06848 14.7656 2.26547C13.967 2.46247 13.2118 2.75797 12.5 3.15196V12.8541ZM11.4583 15.7598C10.625 15.136 9.72222 14.6517 8.75 14.307C7.77778 13.9622 6.77083 13.7898 5.72917 13.7898C5 13.7898 4.28385 13.8801 3.58073 14.0607C2.8776 14.2413 2.20486 14.4958 1.5625 14.8241C1.19792 15.0047 0.846354 14.9965 0.507812 14.7995C0.169271 14.6025 0 14.3152 0 13.9376V2.06848C0 1.8879 0.047743 1.71552 0.143229 1.55136C0.238715 1.38719 0.381944 1.26407 0.572917 1.18199C1.37153 0.787991 2.20486 0.492494 3.07292 0.295497C3.94097 0.0984989 4.82639 0 5.72917 0C6.73611 0 7.72135 0.123124 8.6849 0.369371C9.64844 0.615618 10.5729 0.984989 11.4583 1.47748C12.3437 0.984989 13.2682 0.615618 14.2318 0.369371C15.1953 0.123124 16.1806 0 17.1875 0C18.0903 0 18.9757 0.0984989 19.8438 0.295497C20.7118 0.492494 21.5451 0.787991 22.3438 1.18199C22.5347 1.26407 22.678 1.38719 22.7734 1.55136C22.8689 1.71552 22.9167 1.8879 22.9167 2.06848V13.9376C22.9167 14.3152 22.7474 14.6025 22.4089 14.7995C22.0703 14.9965 21.7187 15.0047 21.3542 14.8241C20.7118 14.4958 20.0391 14.2413 19.3359 14.0607C18.6328 13.8801 17.9167 13.7898 17.1875 13.7898C16.1458 13.7898 15.1389 13.9622 14.1667 14.307C13.1944 14.6517 12.2917 15.136 11.4583 15.7598Z" fill="#533F34"/>
</svg>
