<svg width="531" height="56" viewBox="0 0 531 56" fill="none" xmlns="http://www.w3.org/2000/svg">
<path d="M21.2188 55L4.76562 10.5625L0.195312 10V3.8125H20.5508V10L15.9453 10.7031L26 40.9023L26.7734 43.7148H26.9844L27.7227 40.9727L37.7773 10.7031L32.3984 10V3.8125H51.8047V10L47.1641 10.5625L31.7305 55H21.2188ZM54.8984 55V48.8477L59.8555 47.793V24.2031L54.3711 23.1484V16.9609H70.1211V47.793L75.043 48.8477V55H54.8984ZM59.5039 8.91016V0.15625H70.1211V8.91016H59.5039ZM78.1016 55V48.8477L83.0234 47.793V24.2031L77.5742 23.1484V16.9609H92.5859L93.043 22.4102C94.3086 20.4648 95.8672 18.9531 97.7188 17.875C99.5938 16.7969 101.727 16.2578 104.117 16.2578C107.891 16.2578 110.844 17.4648 112.977 19.8789C115.109 22.293 116.176 26.0781 116.176 31.2344V47.793L121.098 48.8477V55H101.48V48.8477L105.875 47.793V31.2695C105.875 28.7148 105.371 26.9102 104.363 25.8555C103.355 24.7773 101.855 24.2383 99.8633 24.2383C98.3867 24.2383 97.0977 24.5547 95.9961 25.1875C94.918 25.7969 94.0156 26.6758 93.2891 27.8242V47.793L97.4375 48.8477V55H78.1016ZM124.156 55V48.8477L129.113 47.793V24.2031L123.629 23.1484V16.9609H139.379V47.793L144.301 48.8477V55H124.156ZM127.953 9.75391L134.949 0.15625H145.812L145.883 0.367188L136.18 9.75391H128.234H127.953ZM165.641 55.7383C161.984 55.7383 158.82 54.918 156.148 53.2773C153.5 51.6367 151.461 49.375 150.031 46.4922C148.602 43.5859 147.887 40.2695 147.887 36.543V35.4883C147.887 31.7383 148.613 28.4219 150.066 25.5391C151.52 22.6562 153.57 20.3945 156.219 18.7539C158.867 17.0898 161.984 16.2578 165.57 16.2578C168.992 16.2578 171.934 16.7969 174.395 17.875C176.879 18.9297 178.895 20.1602 180.441 21.5664L180.371 32.4648H172.637L171.266 25.6797C170.703 25.1172 169.988 24.6602 169.121 24.3086C168.254 23.957 167.375 23.7812 166.484 23.7812C164.609 23.7812 163.051 24.25 161.809 25.1875C160.59 26.125 159.676 27.4609 159.066 29.1953C158.457 30.9297 158.152 33.0273 158.152 35.4883V36.543C158.152 39.1445 158.492 41.2891 159.172 42.9766C159.852 44.6406 160.754 45.8711 161.879 46.668C163.027 47.4648 164.305 47.8633 165.711 47.8633C167.516 47.8633 168.957 47.3945 170.035 46.457C171.137 45.4961 171.887 44.1484 172.285 42.4141H181.074L181.18 42.625C180.781 45.3203 179.984 47.6523 178.789 49.6211C177.617 51.5898 175.953 53.1016 173.797 54.1562C171.664 55.2109 168.945 55.7383 165.641 55.7383ZM185.469 55V48.8477L190.426 47.793V24.2031L184.941 23.1484V16.9609H200.691V47.793L205.613 48.8477V55H185.469ZM190.074 8.91016V0.15625H200.691V8.91016H190.074ZM225.195 55.7383C221.188 55.7383 218.035 54.4727 215.738 51.9414C213.465 49.3867 212.328 45.4258 212.328 40.0586V24.2031L208.145 23.1484V16.9609H212.328H222.594V40.1289C222.594 42.8477 223.062 44.8047 224 46C224.961 47.1719 226.402 47.7578 228.324 47.7578C229.848 47.7578 231.195 47.4648 232.367 46.8789C233.539 46.2695 234.5 45.4141 235.25 44.3125V24.2031L230.715 23.1484V16.9609H235.25H245.516V47.793L250.086 48.8477V55H236.516L235.812 50.1836C234.617 51.9648 233.117 53.3359 231.312 54.2969C229.508 55.2578 227.469 55.7383 225.195 55.7383ZM270.23 55.7383C267.395 55.7383 264.746 55.4688 262.285 54.9297C259.848 54.3906 257.504 53.6172 255.254 52.6094L255.148 41.8516H262.285L263.656 47.3359C264.453 47.7344 265.32 48.0508 266.258 48.2852C267.219 48.5195 268.309 48.6367 269.527 48.6367C271.824 48.6367 273.441 48.2617 274.379 47.5117C275.316 46.7617 275.785 45.8242 275.785 44.6992C275.785 43.6445 275.281 42.7188 274.273 41.9219C273.289 41.1016 271.309 40.3867 268.332 39.7773C263.832 38.8398 260.516 37.3867 258.383 35.418C256.25 33.4492 255.184 30.9297 255.184 27.8594C255.184 25.75 255.711 23.8281 256.766 22.0938C257.844 20.3594 259.473 18.9648 261.652 17.9102C263.855 16.8555 266.668 16.3281 270.09 16.3281C272.949 16.3281 275.562 16.6094 277.93 17.1719C280.32 17.7109 282.324 18.4258 283.941 19.3164L284.047 29.7227H276.945L275.855 24.7305C275.223 24.2617 274.473 23.9102 273.605 23.6758C272.762 23.4414 271.801 23.3242 270.723 23.3242C268.918 23.3242 267.535 23.6875 266.574 24.4141C265.613 25.1406 265.133 26.0781 265.133 27.2266C265.133 27.8828 265.297 28.4922 265.625 29.0547C265.977 29.6172 266.656 30.1445 267.664 30.6367C268.672 31.1289 270.137 31.5977 272.059 32.043C276.77 33.1211 280.203 34.5625 282.359 36.3672C284.516 38.1484 285.594 40.6562 285.594 43.8906C285.594 47.4297 284.305 50.2891 281.727 52.4688C279.172 54.6484 275.34 55.7383 270.23 55.7383ZM307.672 55V48.8477L313.121 47.793V11.0547L307.672 10V3.8125H348.418V17.8398H340.543L340.086 11.7227H323.387V25.8203H341.316V33.7305H323.387V47.793L328.871 48.8477V55H307.672ZM368.879 55.7383C365.129 55.7383 361.906 54.918 359.211 53.2773C356.516 51.6367 354.453 49.3633 353.023 46.457C351.594 43.5273 350.879 40.1641 350.879 36.3672V35.6289C350.879 31.8555 351.594 28.5156 353.023 25.6094C354.453 22.6797 356.504 20.3945 359.176 18.7539C361.871 17.0898 365.082 16.2578 368.809 16.2578C372.582 16.2578 375.805 17.0898 378.477 18.7539C381.148 20.3945 383.199 22.668 384.629 25.5742C386.059 28.4805 386.773 31.832 386.773 35.6289V36.3672C386.773 40.1641 386.059 43.5273 384.629 46.457C383.199 49.3633 381.148 51.6367 378.477 53.2773C375.805 54.918 372.605 55.7383 368.879 55.7383ZM368.879 47.8633C370.66 47.8633 372.113 47.3828 373.238 46.4219C374.363 45.4609 375.195 44.125 375.734 42.4141C376.273 40.6797 376.543 38.6641 376.543 36.3672V35.6289C376.543 33.3789 376.273 31.3984 375.734 29.6875C375.195 27.9531 374.352 26.6055 373.203 25.6445C372.078 24.6602 370.613 24.168 368.809 24.168C367.051 24.168 365.598 24.6602 364.449 25.6445C363.301 26.6055 362.457 27.9531 361.918 29.6875C361.402 31.3984 361.145 33.3789 361.145 35.6289V36.3672C361.145 38.6641 361.402 40.6797 361.918 42.4141C362.457 44.1484 363.301 45.4961 364.449 46.457C365.598 47.3945 367.074 47.8633 368.879 47.8633ZM390.992 55V48.8477L395.914 47.793V24.2031L390.465 23.1484V16.9609H405.477L405.934 22.4102C407.199 20.4648 408.758 18.9531 410.609 17.875C412.484 16.7969 414.617 16.2578 417.008 16.2578C420.781 16.2578 423.734 17.4648 425.867 19.8789C428 22.293 429.066 26.0781 429.066 31.2344V47.793L433.988 48.8477V55H414.371V48.8477L418.766 47.793V31.2695C418.766 28.7148 418.262 26.9102 417.254 25.8555C416.246 24.7773 414.746 24.2383 412.754 24.2383C411.277 24.2383 409.988 24.5547 408.887 25.1875C407.809 25.7969 406.906 26.6758 406.18 27.8242V47.793L410.328 48.8477V55H390.992ZM451.039 55.7383C447.5 55.7383 444.77 54.7656 442.848 52.8203C440.949 50.875 440 47.793 440 43.5742V24.168H434.762V16.9609H440V7.64453H450.23V16.9609H457.227V24.168H450.23V43.5391C450.23 45.0156 450.535 46.0703 451.145 46.7031C451.777 47.3359 452.633 47.6523 453.711 47.6523C454.297 47.6523 454.906 47.6172 455.539 47.5469C456.195 47.4531 456.758 47.3594 457.227 47.2656L458.105 54.6836C457.051 54.9883 455.902 55.2344 454.66 55.4219C453.441 55.6328 452.234 55.7383 451.039 55.7383ZM479.34 55.7383C475.707 55.7383 472.531 54.9414 469.812 53.3477C467.094 51.7305 464.984 49.5156 463.484 46.7031C462.008 43.8906 461.27 40.6797 461.27 37.0703V35.6641C461.27 31.8906 461.973 28.5508 463.379 25.6445C464.785 22.7148 466.766 20.418 469.32 18.7539C471.898 17.0898 474.934 16.2578 478.426 16.2578C481.871 16.2578 484.766 16.9375 487.109 18.2969C489.453 19.6562 491.234 21.6133 492.453 24.168C493.672 26.7227 494.281 29.8164 494.281 33.4492V39.0391H471.922L471.852 39.25C471.992 40.9141 472.402 42.4023 473.082 43.7148C473.785 45.0039 474.77 46.0234 476.035 46.7734C477.301 47.5 478.836 47.8633 480.641 47.8633C482.516 47.8633 484.262 47.6289 485.879 47.1602C487.52 46.668 489.113 45.9531 490.66 45.0156L493.438 51.3438C491.867 52.6094 489.887 53.6641 487.496 54.5078C485.129 55.3281 482.41 55.7383 479.34 55.7383ZM471.992 32.2539H484.684V31.3398C484.684 29.793 484.473 28.4688 484.051 27.3672C483.652 26.2422 482.996 25.375 482.082 24.7656C481.191 24.1562 480.031 23.8516 478.602 23.8516C477.242 23.8516 476.094 24.2148 475.156 24.9414C474.219 25.6445 473.48 26.6172 472.941 27.8594C472.426 29.1016 472.074 30.5078 471.887 32.0781L471.992 32.2539ZM515.41 55.7383C512.574 55.7383 509.926 55.4688 507.465 54.9297C505.027 54.3906 502.684 53.6172 500.434 52.6094L500.328 41.8516H507.465L508.836 47.3359C509.633 47.7344 510.5 48.0508 511.438 48.2852C512.398 48.5195 513.488 48.6367 514.707 48.6367C517.004 48.6367 518.621 48.2617 519.559 47.5117C520.496 46.7617 520.965 45.8242 520.965 44.6992C520.965 43.6445 520.461 42.7188 519.453 41.9219C518.469 41.1016 516.488 40.3867 513.512 39.7773C509.012 38.8398 505.695 37.3867 503.562 35.418C501.43 33.4492 500.363 30.9297 500.363 27.8594C500.363 25.75 500.891 23.8281 501.945 22.0938C503.023 20.3594 504.652 18.9648 506.832 17.9102C509.035 16.8555 511.848 16.3281 515.27 16.3281C518.129 16.3281 520.742 16.6094 523.109 17.1719C525.5 17.7109 527.504 18.4258 529.121 19.3164L529.227 29.7227H522.125L521.035 24.7305C520.402 24.2617 519.652 23.9102 518.785 23.6758C517.941 23.4414 516.98 23.3242 515.902 23.3242C514.098 23.3242 512.715 23.6875 511.754 24.4141C510.793 25.1406 510.312 26.0781 510.312 27.2266C510.312 27.8828 510.477 28.4922 510.805 29.0547C511.156 29.6172 511.836 30.1445 512.844 30.6367C513.852 31.1289 515.316 31.5977 517.238 32.043C521.949 33.1211 525.383 34.5625 527.539 36.3672C529.695 38.1484 530.773 40.6562 530.773 43.8906C530.773 47.4297 529.484 50.2891 526.906 52.4688C524.352 54.6484 520.52 55.7383 515.41 55.7383Z" fill="black"/>
</svg>
